<?xml version="1.0" encoding="UTF-8"?>
<svg xmlns="http://www.w3.org/2000/svg" version="1.1" viewBox="11 6 60 60">
  <!-- Casagrande Institute favicon: V-mark extracted from CI_Logo_A.svg. -->
  <g id="V_Icon">
    <path fill="#EE3139" d="M 50.0383 21.8297 L 48.7109 24.7406 L 33.4273 24.7406 L 32.0574 21.8297 L 36.7883 21.8297 C 31.2656 16.9277 38.5219 13.032 38.6934 11.1055 C 38.7574 10.5273 40.7055 15.0441 38.8004 16.093 C 36.5098 17.3344 38.2867 19.9461 39.8277 21.7437 C 39.5066 21.016 39.2496 20.2242 39.2496 19.8176 C 39.2711 19.2395 39.5066 18.1051 40.0848 17.9125 C 41.3047 17.5059 40.5555 14.9156 40.8766 15.2367 C 43.852 18.1477 43.2953 20.4383 42.3109 21.8297 L 42.418 21.8297 C 43.916 20.2453 45.3504 17.634 43.8305 14.9371 C 43.1668 13.7383 41.8398 13.1176 41.1977 12.5824 C 40.5555 12.0473 40.4699 11.148 41.2621 10.1852 C 42.0754 9.2004 42.3965 7.4023 42.3965 7.4023 C 42.6531 9.5215 46.0781 12.1113 46.7844 13.0961 C 47.491 14.0594 48.4113 15.7074 47.6621 18.6402 C 47.298 20.1387 46.5703 21.1445 45.8 21.8297 L 50.0383 21.8297 Z"/>
    <path fill="#EE3139" d="M 45.4789 62.1359 C 48.5613 57.7266 52.243 52.5035 55.7105 47.602 L 55.7105 51.9043 C 55.7105 51.9043 56.1602 60.1027 45.4789 62.1359 Z"/>
    <path fill="#EE3139" d="M 55.7105 27.352 L 55.7105 30.5629 L 50.2309 38.3332 L 50.2309 27.352 L 55.7105 27.352 Z"/>
    <path fill="#EE3139" d="M 44.6227 33.8594 L 42.6746 33.8594 C 42.5246 34.0949 42.332 34.266 42.0969 34.416 L 42.0969 41.0516 L 40.0203 41.0516 L 40.0203 34.416 C 39.7852 34.266 39.5922 34.0949 39.4641 33.8594 L 37.4945 33.8594 L 37.4945 31.7832 L 39.4641 31.7832 C 39.5922 31.5691 39.7852 31.3766 40.0203 31.2266 L 40.0203 29.7496 L 42.0969 29.7496 L 42.0969 31.2266 C 42.332 31.3766 42.5246 31.5691 42.6746 31.7832 L 44.6227 31.7832 L 44.6227 33.8594 M 41.0691 48.0086 L 38.5648 43.8773 L 43.5523 43.8773 L 41.0691 48.0086 M 47.4055 27.352 L 34.7332 27.352 L 34.6691 42.7215 L 41.0691 51.4762 L 47.448 42.7215 L 47.4055 27.352 Z"/>
    <path fill="#EE3139" d="M 31.8863 27.352 L 31.8863 38.3332 L 26.4066 30.5629 L 26.4066 27.352 L 31.8863 27.352 Z"/>
    <path fill="#EE3139" d="M 36.6383 62.1359 C 25.957 60.1027 26.4066 51.9043 26.4066 51.9043 L 26.4066 47.602 C 29.8742 52.5035 33.5559 57.7266 36.6383 62.1359 Z"/>
    <path fill="#EE3139" d="M 67.184 27.352 L 41.0477 64.5977 L 14.9547 27.352 L 21.1406 27.352 L 41.0691 55.6719 L 60.9762 27.352 L 67.184 27.352 Z"/>
    <path fill="#EE3139" d="M 41.9254 32.832 C 41.9254 33.3027 41.5402 33.6883 41.0691 33.6883 C 40.577 33.6883 40.1918 33.3027 40.1918 32.832 C 40.1918 32.3398 40.577 31.9543 41.0691 31.9543 C 41.5402 31.9543 41.9254 32.3398 41.9254 32.832 Z"/>
  </g>
</svg>
